<?xml version="1.0" encoding="UTF-8"?>
<!DOCTYPE svg PUBLIC "-//W3C//DTD SVG 1.1//EN" "http://www.w3.org/Graphics/SVG/1.1/DTD/svg11.dtd">
<!-- Creator: CorelDRAW 2020 (64-Bit Оценочная версия) -->
<svg xmlns="http://www.w3.org/2000/svg" xml:space="preserve" width="109.954mm" height="107.718mm" version="1.1" style="shape-rendering:geometricPrecision; text-rendering:geometricPrecision; image-rendering:optimizeQuality; fill-rule:evenodd; clip-rule:evenodd"
viewBox="0 0 935.46 916.44"
 xmlns:xlink="http://www.w3.org/1999/xlink"
 xmlns:xodm="http://www.corel.com/coreldraw/odm/2003">
 <defs>
  <style type="text/css">
   <![CDATA[
    .str0 {stroke:#E63C24;stroke-width:24.01;stroke-miterlimit:22.9256}
    .str1 {stroke:#2B2A29;stroke-width:1.7;stroke-miterlimit:22.9256}
    .str2 {stroke:#744C1C;stroke-width:1.7;stroke-miterlimit:22.9256}
    .str3 {stroke:#FEFEFE;stroke-width:1.5;stroke-miterlimit:22.9256}
    .str4 {stroke:#E64124;stroke-width:15.01;stroke-miterlimit:22.9256}
    .fil4 {fill:none}
    .fil9 {fill:#FEFEFE}
    .fil3 {fill:#FEFEFE}
    .fil2 {fill:#AC6F1C}
    .fil14 {fill:#ECECEC}
    .fil7 {fill:#ECECEC}
    .fil6 {fill:#814C1D}
    .fil1 {fill:#744C1C}
    .fil15 {fill:#BB7575}
    .fil16 {fill:#8F5A5A}
    .fil17 {fill:#8F5A5A}
    .fil12 {fill:#6F7070}
    .fil13 {fill:#8CBE2E}
    .fil11 {fill:#616161}
    .fil8 {fill:#3F3F3F}
    .fil5 {fill:#1F1B20}
    .fil10 {fill:#1F1B20}
    .fil0 {fill:#29DBB4}
   ]]>
  </style>
 </defs>
 <g id="Слой_x0020_1">
  <metadata id="CorelCorpID_0Corel-Layer"/>
  <path class="fil0 str0" d="M743.15 831.75c109.8,-83.21 180.31,-215.63 180.31,-364.02 0,-251.69 -204.04,-455.73 -455.73,-455.73 -251.69,0 -455.73,204.04 -455.73,455.73 0,148.06 72.52,280.77 181.9,364.02l132.65 0 30.49 -19.92 13.06 63.33 17.55 -43.41 54.45 0c-92.23,-98.59 7.12,-125.54 26.43,-88.24 19.31,-37.3 118.66,-10.35 26.43,88.24l54.45 0 17.55 43.41 13.06 -63.33 30.49 19.92 132.65 0z"/>
  <path class="fil1" d="M604.02 132.41c25.38,-21.27 58.99,-12.52 78.42,1.92 10.9,8.1 38.58,14.2 51.95,38.11 -10.16,2.17 -10.45,16.3 -31.71,15.79 -11.79,7.56 -19.16,18.64 -25.5,22.69 -24.52,15.68 -58.14,-10.57 -67.97,-38.94 -3.12,-9.02 -11.8,-34.05 -5.2,-39.57z"/>
  <path class="fil1" d="M603.69 546.68c-4.79,13.96 -10.78,36.74 -10.78,55.32 0,18.58 8.17,24.19 22.41,24.19 14.24,0 16.34,-22.49 16.34,-41.07 0,-18.58 -23.18,-52.39 -27.97,-38.43z"/>
  <path class="fil1" d="M518.22 546.68c4.79,13.96 10.78,36.74 10.78,55.32 0,18.58 -8.17,24.19 -22.41,24.19 -14.24,0 -16.34,-22.49 -16.34,-41.07 0,-18.58 23.18,-52.39 27.97,-38.43z"/>
  <path class="fil2" d="M457.85 565.15c1.97,-73.58 3.88,-91.39 40.49,-190.61 35.11,-95.15 166.55,180.24 101.87,202.61 -15.02,10.66 -60.01,9.23 -79.63,-2.24 -47.65,-27.87 -61.8,-9.61 -62.74,-9.75z"/>
  <path class="fil3" d="M600.59 588.48c0.5,10.92 -3.22,48.21 -6.41,62.76 -4.67,21.34 17.98,36.96 20.03,28.29 0.06,7.51 15.79,6.49 16.43,2.76 -0.17,3.85 17.27,6.47 18.86,-0.39 0.75,7.32 22.47,1.6 22.14,-11.62 -0.23,-9.12 -4.26,-53.44 -4.45,-72.6 -0.2,-20.39 -19.31,-21.56 -41.71,-22.32 -21.3,-0.72 -25.58,-2.12 -24.88,13.11z"/>
  <path class="fil2" d="M647.55 397.22c23.21,22.63 19.26,165.32 19.64,200.47 -8.35,-1.29 -29.25,-9.2 -66.6,-9.2 -0.12,-12.16 -0.79,-18.5 -2.89,-30.33 -9.57,-53.74 -1.56,-62.32 14.22,-112.55 7.73,-24.62 13.05,-36.34 35.64,-48.37z"/>
  <path class="fil3" d="M515.35 378.63c1.8,12.19 -1.08,29.97 -5.85,42.08 -2.86,7.27 -13.1,12.97 -10.33,29.95 7.99,48.97 6.73,65.28 36.01,99.59 21.31,24.97 77.18,18.74 91.95,-10.25 13.54,-26.57 14.99,-36.57 28.18,-64.99 12.25,-26.4 -14.31,-80.53 -12.18,-114.22 0.69,-10.91 -94.56,-4.25 -106.78,1.97 -2.88,1.47 -21.54,12.26 -21.01,15.88z"/>
  <path class="fil3" d="M457.85 565.15c-1.16,0.55 0.49,53.84 -4.19,76.14 -7.35,35.01 17.13,44.95 21.69,36.14 -0.63,6.07 18.65,6.45 19.08,2.03 0.71,5.63 19.33,2.85 19.82,-1.71 0.86,2.81 17.87,5.29 16.64,-20.39 -0.44,-9.16 -10.02,-28.64 -9.79,-41.96 0.05,-2.72 0.73,-59.06 -4.32,-75.19 -4.62,3.39 -36.68,14.43 -58.93,24.94z"/>
  <path class="fil4 str1" d="M475.15 677.61c0.01,-0.03 0.51,-14.07 0.87,-18.43"/>
  <path class="fil4 str1" d="M494.51 679.75c0.01,-0.03 1.08,-14.63 0.42,-20.23"/>
  <path class="fil4 str1" d="M514.42 678.17c0.01,-0.03 -0.05,-14.41 -0.71,-20"/>
  <path class="fil4 str1" d="M614.37 680.69c0.01,-0.03 1.47,-15.67 1.46,-21.9"/>
  <path class="fil4 str1" d="M630.7 682.94c0.01,-0.03 2.97,-15.91 2.94,-22.63"/>
  <path class="fil4 str1" d="M649.55 683.17c0,0 2.9,-15.11 2.2,-21.33"/>
  <path class="fil5" d="M285.28 385.65c37.55,-12.85 86.26,-50.63 121.77,-70.16 28.59,-15.72 39.39,-26.63 72.7,-41.74 36.53,-16.57 76.63,-23.17 103.83,-36.33 21.59,-10.45 38.5,-4.58 57.12,2.04 40.45,14.38 23.55,79.59 -46.24,97.89 -45.79,12 -138.85,24.88 -138.85,87.42 0,23.21 -6.95,62.18 -35.33,62.18 -25.41,0 -105.96,-36.54 -123.93,-49.8 -35.52,-26.2 -6.97,-42.46 -11.06,-51.49z"/>
  <g id="_1645487273456">
   <path class="fil1" d="M447.12 185.4c-9.15,-2.06 -28.36,10.88 -35.53,17.23 -11.8,10.43 -18.17,42.6 -26.57,59.48 -4.75,9.54 -18.18,37.01 -6.53,42.84 13.77,6.89 37.52,13.03 52.2,7.34 20.89,-8.1 27.89,-9.53 33.95,-35.62 2.72,-11.73 -11.02,-59.03 -12.08,-79.89 -0.28,-5.57 -5.17,-11.3 -5.45,-11.37z"/>
   <path class="fil2" d="M435.24 298.38c-10.64,-42.47 -13.55,-116.32 50.43,-144.63 24.79,-10.97 50.1,-23.46 80.76,-25.33 119.4,-7.3 147.84,161.02 98.33,207.26 -28.35,26.48 -102.51,50.3 -142.11,44.19 -38.77,-5.99 -71.77,-19.05 -87.41,-81.49zm66.84 -14.18c9.51,0 17.22,7.61 17.22,17 0,9.39 -7.71,17 -17.22,17 -9.51,0 -17.22,-7.61 -17.22,-17 0,-9.39 7.71,-17 17.22,-17zm130.56 -35.12c9.51,0 17.22,7.61 17.22,17 0,9.39 -7.71,17 -17.22,17 -9.51,0 -17.22,-7.61 -17.22,-17 0,-9.39 7.71,-17 17.22,-17z"/>
   <path class="fil6" d="M632.41 246.83c12,0 21.72,9.73 21.72,21.72 0,12 -9.73,21.72 -21.72,21.72 -12,0 -21.72,-9.73 -21.72,-21.72 0,-12 9.73,-21.72 21.72,-21.72zm0.23 2.25c9.51,0 17.22,7.61 17.22,17 0,9.39 -7.71,17 -17.22,17 -9.51,0 -17.22,-7.61 -17.22,-17 0,-9.39 7.71,-17 17.22,-17z"/>
   <path class="fil6" d="M501.85 281.95c12,0 21.72,9.73 21.72,21.72 0,12 -9.73,21.72 -21.72,21.72 -12,0 -21.72,-9.73 -21.72,-21.72 0,-12 9.73,-21.72 21.72,-21.72zm0.23 2.25c9.51,0 17.22,7.61 17.22,17 0,9.39 -7.71,17 -17.22,17 -9.51,0 -17.22,-7.61 -17.22,-17 0,-9.39 7.71,-17 17.22,-17z"/>
   <path class="fil7 str1" d="M639.2 363.12c0.69,-9.24 -57.76,6.25 -68,15.3 -2.19,1.93 -17.51,6.57 -9.17,9.94 29.61,11.98 75.77,-6.47 77.17,-25.25z"/>
   <path class="fil3 str2" d="M485.67 153.75c-13.19,27.29 -7.89,59.92 11.17,78.22 73.57,70.66 2.79,102.43 8.05,144.39 18.32,7.47 23.89,11.82 57.15,12 23.2,-12.84 51.18,-20.88 77.17,-25.25 10.99,-5.52 26.65,-22.91 26.8,-32.89 -6.62,-35.82 -75.03,-23.32 -71.84,-88.74 3.04,-62.41 -2.22,-106.6 -27.73,-113.07 -29.66,-1.43 -61.99,11.34 -80.76,25.33z"/>
   <path class="fil8" d="M574.78 313.44c37.22,-13.78 48.71,13.37 31.05,27.04 -12.69,9.82 -6.51,13.97 -12.71,16.14 -5.45,1.68 -3.75,-5.62 -22.33,-5.23 -16.27,0.34 -31.65,-24.75 3.99,-37.95z"/>
   <ellipse class="fil9" cx="504.11" cy="293.1" rx="6.66" ry="4.66"/>
   <ellipse class="fil9" cx="632.77" cy="258.48" rx="6.66" ry="4.66"/>
   <path class="fil10" d="M563.01 336.89c1.27,-6.04 8.79,-8.47 11.1,-1.29 1.93,6.01 -6.71,10.46 -10.32,4.43 -1.02,0.35 -7.71,2.38 -8.88,2.29 -0.81,-1.78 -0.58,-1.2 -1.31,-3.31 0.01,1.54 8.82,0.35 9.41,-2.11z"/>
   <path class="fil10" d="M602.48 320.11c-5.32,-3.13 -12.18,0.8 -8.43,7.34 3.14,5.47 12.25,2.09 10.22,-4.65 0.94,-0.52 6.93,-3.76 7.66,-4.69 -1.22,-1.74 -1.72,-1.92 -2.78,-3.22 1.13,1.04 -4.45,6.43 -6.67,5.21z"/>
   <path class="fil4 str1" d="M593.12 356.61c2.28,5.24 4.32,10.55 5.22,16.35"/>
   <path class="fil4 str3" d="M726.71 302.3c-26.89,-1.77 -61.8,6.73 -83.89,16.67"/>
   <path class="fil4 str3" d="M725.33 328.81c-29.77,-4.48 -41.6,-4.9 -79.35,3.22"/>
   <path class="fil4 str3" d="M721.74 354.51c-36.23,-7.36 -41.7,-12.58 -72.6,-15.24"/>
   <path class="fil4 str3" d="M516.34 362.66c-26.89,-1.77 -61.8,6.73 -83.89,16.67"/>
   <path class="fil4 str3" d="M517.52 351.68c-29.77,-4.48 -41.6,-4.9 -79.35,3.22"/>
  </g>
  <path class="fil11" d="M195.91 583.52c0,12.52 2.01,59.03 8.78,61.44 9.2,3.28 51.48,19.19 53.63,-3.38 0.53,-5.59 -0.07,-18.42 -21.67,-23.7 -0.15,-4.7 -0.94,-23.83 1.15,-38.67 1.34,-9.53 -20.5,-8.03 -41.89,4.3z"/>
  <path class="fil12" d="M261.63 446.24l17.16 13.14c12.68,39.24 9.85,95.51 27.25,130 3.19,15.22 6.38,30.42 9.55,45.58 0.75,29.38 -27.76,55.6 -51.77,28.02 -14.02,-37.92 -19.17,-46.13 -26.05,-57.6 -12.98,3.08 -34.74,2.33 -47.27,-3.15 -0.43,4.44 -6.69,34.27 -4.14,40.43 36.52,6.31 42.16,25.69 24.4,40.16 -21.16,12.16 -55.82,-3.15 -67.19,-26.79 -15.8,-41.02 -23.79,-168.9 20.82,-195.16 -13.06,-24.91 -22.28,-57.55 -26.34,-94.62 12.57,-6.08 23.34,-10.89 46.27,-9.42 15.01,31.51 24.04,54.97 30.04,86.04 16.21,-2.03 32.64,-1.13 47.27,3.38z"/>
  <path class="fil12" d="M329.39 593.09c3.53,7.34 6.09,19.26 8.27,29.88 41.32,-7.9 7.59,-12.35 48.14,-11.93 -0.73,-3.6 -11.39,-47.2 -13.07,-69.9 -1.71,16.62 -45.35,47.78 -43.35,51.95z"/>
  <path class="fil9" d="M315.59 634.96c-5.15,19.79 -43.05,35.42 -51.77,28.02 6.53,15.42 12.52,36.57 18.68,48.62 9.53,19.51 40.67,10.95 30.05,-1.5 2.44,12.53 28.74,-0.23 15.87,-13.81 3.26,18.72 18.23,-3.98 10.47,-9.57 5.48,11.29 7.12,-12.79 -7.72,-22.2 -12.67,-7.93 -10.96,-16.24 -15.58,-29.57z"/>
  <path class="fil9" d="M337.66 622.97c2.89,14.27 4.81,22.12 3.99,31.11 0.85,22.3 18,18.2 17.02,5.58 0.47,11.5 21.73,15.6 20.38,-1.6 -0.08,15.59 17.03,6.65 13.99,-5.6 3.06,19.27 19.93,0.3 3.03,-23.86 -4.92,-7.04 -8.14,-9.05 -10.26,-17.56 -5.86,-7.69 -41.44,0.99 -48.14,11.93z"/>
  <path class="fil9" d="M322.26 455.51c-26.01,-2.66 -45.61,-4.56 -49.23,28.26 -6.01,54.34 23.43,84.22 36.02,119.97 49.44,-25.53 66.83,-33.35 65.43,-95.21 8.6,-10.54 -42.98,-23.56 -55.85,-35.73 -2.13,-2.02 4.51,-17.2 3.62,-17.29z"/>
  <path class="fil9" d="M138.05 366.25c-0.79,-10.84 -4.47,-37.54 13.27,-40.73 12.62,-2.27 28.14,18.97 33,31.31 -3.09,1.92 -38.6,13.09 -46.27,9.42z"/>
  <path class="fil4 str1" d="M314.56 713.76c-2.65,-4.94 -5.87,-9.43 -12.02,-13.81"/>
  <path class="fil4 str1" d="M340.68 689.7c-2.65,-4.94 -3.66,-7.75 -9.8,-12.12"/>
  <path class="fil4 str1" d="M332.19 703.36c-2.65,-4.94 -5.83,-9.37 -11.34,-14.48"/>
  <path class="fil4 str1" d="M358.53 662.78c0.01,-0.03 -0.61,-12.27 -1.61,-15.5"/>
  <path class="fil4 str1" d="M379.26 660.9c0,0 -0.5,-13.39 -2.06,-16.63"/>
  <path class="fil4 str1" d="M393.62 655.55c0,0 -2.19,-13.28 -3.75,-16.52"/>
  <path class="fil12" d="M308.9 286.32c-57.92,25.39 -86.05,149.43 -27.87,178.69 7.01,3.57 22.5,5.41 33.3,5.52l56.85 -19.16 12.73 7.44c-2.51,23.83 -41.83,46.51 9.73,49.79 66.61,7.45 137.89,-137.44 67.69,-193.98 -29.05,-23.4 -96.38,-52.86 -152.43,-28.31zm131 165.09c1.67,14.04 -7.64,24.03 -20.07,21.03 -13.33,-3.22 -13.51,-24.73 -1.56,-29.67 7.23,-2.99 18.11,1.17 21.63,8.64zm-106.61 -56.45c3.74,2.93 6.9,9.24 6.98,13.64 0.17,9.24 -8.25,17.11 -17.76,17.04 -9.51,-0.07 -16.93,-7.21 -17.08,-16.46 -0.08,-4.78 3.45,-12.14 6.62,-15.24 6.69,-1.56 12.06,-1.9 21.24,1.02z"/>
  <path class="fil13" d="M321.42 392.85c22.8,0.68 24.82,15.15 21.7,23.36 -3.12,8.21 -11.59,17.46 -22.6,17.31 -25.56,-0.35 -31.95,-41.65 0.9,-40.67zm11.86 2.11c3.74,2.93 6.9,9.24 6.98,13.64 0.17,9.24 -8.25,17.11 -17.76,17.04 -9.51,-0.07 -16.93,-7.21 -17.08,-16.46 -0.08,-4.78 3.45,-12.14 6.62,-15.24 7.46,-1.77 13,-1.43 21.24,1.02z"/>
  <path class="fil13" d="M442.45 462.08c-2.57,14.56 -17.35,21.26 -27.79,16.03 -10.44,-5.23 -12.71,-22.9 -3.35,-31.66 15.37,-11.5 32.17,0.76 31.15,15.63zm-2.57 -10.81c1.67,14.04 -7.63,24.17 -20.06,21.18 -13.33,-3.22 -12.98,-25 -1.68,-29.61 7.24,-2.96 17.26,0.65 21.74,8.43z"/>
  <path class="fil11" d="M481.51 386.4c0.02,-0.28 -3.81,-20.5 -4.32,-24.61 -1.13,-9.17 1.25,-12.11 5.7,-18.91 9.04,2.12 24.21,76.71 3.79,68.44 -2.66,-0.22 -4.69,-15.12 -4.63,-18.1 0.03,-1.76 -0.53,-6.85 -0.53,-6.82z"/>
  <path class="fil11" d="M266.37 330.6c-8.03,-36.97 -13.84,-99.08 13.76,-91.82 18.08,4.76 43.57,37.75 56.73,39.51 15.3,2.04 -60.41,50.99 -70.49,52.31z"/>
  <path class="fil14 str1" d="M329.2 492.32c1.51,12.3 18.96,19.36 35,14.07 21.77,-13.79 -38.16,-39.82 -35,-14.07z"/>
  <path class="fil9 str1" d="M312.99 469.48c3.16,7.69 4.71,10.47 15.3,22.32 5.03,5.63 10.42,1.66 23.17,1.83 6.15,7.59 5.9,10.88 12.39,12.63 13.89,3.73 25.73,2.23 32.11,-0.43 10.36,-9.49 0.74,-46.16 6.17,-74.76 2.43,-12.82 18.52,-29.08 24.84,-53.44 13.29,-51.27 -3.99,-59.32 -19.2,-64.11 -19.49,-6.14 -26.98,24.08 -44.78,102.82 -13.24,31.29 -42.16,37.3 -49.99,53.16z"/>
  <path class="fil15" d="M349.77 469.03c-1.86,3.47 1.21,7.54 2.98,10.66 0.17,0.3 0.37,0.7 0.55,1.07 0.11,0.23 0.22,0.45 0.29,0.62 1.63,3.72 0.97,4.83 2.1,5.56 1.01,0.65 2.78,0.04 8.42,-0.07 4.79,-0.09 9.22,1.55 11.64,-2.65 2.6,-4.51 0.42,-8.51 -7.85,-13.37 -10.61,-6.24 -15.83,-6.13 -18.14,-1.82z"/>
  <ellipse class="fil9" cx="426.02" cy="449.23" rx="4.05" ry="2.93"/>
  <path class="fil16" d="M357.36 475.49c1.12,3.89 -3.65,5.94 -4.05,5.27 -0.4,-0.66 -2.54,-4.24 -3.04,-5.44 -0.83,-2 5.96,-3.72 7.08,0.17z"/>
  <path class="fil17" d="M365.62 481.53c-4,0.13 -4.03,5.34 -3.26,5.4 0.77,0.06 5.25,0.11 6.56,0.16 1.77,0.06 0.7,-5.69 -3.3,-5.56z"/>
  <path class="fil4 str3" d="M342.54 341.34c-0.99,-31.68 7.58,-67.88 -26.64,-113.36"/>
  <path class="fil4 str3" d="M349.74 346.75c32.64,-74.75 70.11,-92.04 69.69,-96.89"/>
  <path class="fil4 str3" d="M442.03 393.12c11.4,-26.54 51.6,-56.24 89.26,-74.63"/>
  <path class="fil4 str3" d="M451.49 394.47c14.29,-23.47 51.32,-42.63 71.8,-48.44"/>
  <path class="fil4 str3" d="M333.93 462.81c-63.72,-10 -169.53,32.8 -188.44,62.96"/>
  <path class="fil4 str3" d="M318.64 472.8c-64.42,5.19 -140.3,58.83 -158.47,84.87"/>
  <path class="fil4 str3" d="M343.08 482.39c-64.42,5.19 -112.47,67.62 -130.63,93.65"/>
  <path class="fil4 str3" d="M474.12 585.14c-15.77,-37.13 -52.8,-85.11 -82.09,-99.03"/>
  <path class="fil4 str3" d="M451.2 607.65c-15.77,-37.13 -34.79,-91.41 -64.08,-105.33"/>
  <path class="fil4 str3" d="M470.33 619.13c-15.77,-37.13 -46.49,-106.27 -75.78,-120.19"/>
  <path class="fil4 str3" d="M514.67 368.83c-24.38,6.38 -56.85,24.74 -69.03,37.38"/>
  <path class="fil4 str3" d="M342.54 341.34c-0.99,-31.68 7.58,-67.88 -26.64,-113.36"/>
  <ellipse class="fil9" cx="324.83" cy="398.47" rx="4.05" ry="2.93"/>
  <path class="fil4 str4" d="M193.9 831.75l132.65 0 30.49 -19.92 13.06 63.33 17.55 -43.41 54.45 0c-92.23,-98.59 7.12,-125.54 26.43,-88.24 19.31,-37.3 118.66,-10.35 26.43,88.24l54.45 0 17.55 43.41 13.06 -63.33 30.49 19.92 132.65 0"/>
 </g>
</svg>
