<?xml version="1.0" encoding="UTF-8"?>
<!DOCTYPE svg PUBLIC "-//W3C//DTD SVG 1.1//EN" "http://www.w3.org/Graphics/SVG/1.1/DTD/svg11.dtd">
<!-- Creator: CorelDRAW 2020 (64-Bit Оценочная версия) -->
<svg xmlns="http://www.w3.org/2000/svg" xml:space="preserve" width="70.9155mm" height="92.6954mm" version="1.1" style="shape-rendering:geometricPrecision; text-rendering:geometricPrecision; image-rendering:optimizeQuality; fill-rule:evenodd; clip-rule:evenodd"
viewBox="0 0 367.6 480.5"
 xmlns:xlink="http://www.w3.org/1999/xlink"
 xmlns:xodm="http://www.corel.com/coreldraw/odm/2003">
 <defs>
  <style type="text/css">
   <![CDATA[
    .str3 {stroke:#FEFEFE;stroke-width:12.8;stroke-miterlimit:22.9256}
    .str0 {stroke:#2B2A29;stroke-width:1.04;stroke-miterlimit:22.9256}
    .str1 {stroke:#744C1C;stroke-width:1.04;stroke-miterlimit:22.9256}
    .str2 {stroke:#FEFEFE;stroke-width:0.91;stroke-miterlimit:22.9256}
    .str4 {stroke:#E64124;stroke-width:9.14;stroke-miterlimit:22.9256}
    .fil14 {fill:none}
    .fil9 {fill:#FEFEFE}
    .fil1 {fill:#FEFEFE}
    .fil3 {fill:#AC6F1C}
    .fil10 {fill:#ECECEC}
    .fil4 {fill:#ECECEC}
    .fil6 {fill:#814C1D}
    .fil0 {fill:#744C1C}
    .fil11 {fill:#BB7575}
    .fil15 {fill:#8F5A5A}
    .fil16 {fill:#8F5A5A}
    .fil8 {fill:#6F7070}
    .fil12 {fill:#8CBE2E}
    .fil2 {fill:#616161}
    .fil5 {fill:#3F3F3F}
    .fil13 {fill:#1F1B20}
    .fil7 {fill:#1F1B20}
   ]]>
  </style>
 </defs>
 <g id="Слой_x0020_1">
  <metadata id="CorelCorpID_0Corel-Layer"/>
  <path class="fil0" d="M287.97 260.16c-2.92,8.5 -6.57,22.38 -6.57,33.7 0,11.32 4.98,14.74 13.66,14.74 8.68,0 9.95,-13.7 9.95,-25.03 0,-11.32 -14.13,-31.92 -17.04,-23.42z"/>
  <path class="fil1" d="M286.08 285.62c0.3,6.66 -1.96,29.37 -3.9,38.24 -2.84,13 10.96,22.52 12.21,17.24 0.04,4.58 9.62,3.96 10.01,1.68 -0.1,2.34 10.52,3.94 11.49,-0.24 0.46,4.46 13.69,0.97 13.49,-7.08 -0.14,-5.56 -2.6,-32.56 -2.71,-44.23 -0.12,-12.42 -11.77,-13.14 -25.42,-13.6 -12.98,-0.44 -15.59,-1.29 -15.16,7.99z"/>
  <path class="fil0" d="M235.89 260.16c2.92,8.5 6.57,22.38 6.57,33.7 0,11.32 -4.98,14.74 -13.66,14.74 -8.68,0 -9.95,-13.7 -9.95,-25.03 0,-11.32 14.13,-31.92 17.04,-23.42z"/>
  <path class="fil2" d="M39.51 282.6c0,7.63 1.23,35.96 5.35,37.43 5.6,2 31.36,11.69 32.68,-2.06 0.33,-3.41 -0.04,-11.23 -13.2,-14.44 -0.09,-2.86 -0.57,-14.52 0.7,-23.56 0.82,-5.81 -12.49,-4.9 -25.52,2.62z"/>
  <path class="fil0" d="M288.17 7.75c15.46,-12.96 35.94,-7.63 47.78,1.17 6.64,4.94 23.51,8.65 31.65,23.22 -6.19,1.32 -6.37,9.93 -19.32,9.62 -7.18,4.6 -11.68,11.36 -15.54,13.83 -14.94,9.56 -35.42,-6.44 -41.41,-23.73 -1.9,-5.49 -7.19,-20.74 -3.17,-24.11z"/>
  <path class="fil0" d="M192.57 40.04c-5.58,-1.25 -17.28,6.63 -21.65,10.5 -7.19,6.36 -11.07,25.96 -16.19,36.24 -2.89,5.81 -11.08,22.55 -3.98,26.1 8.39,4.2 22.86,7.94 31.81,4.47 12.73,-4.93 16.99,-5.81 20.69,-21.7 1.66,-7.15 -6.71,-35.96 -7.36,-48.68 -0.17,-3.39 -3.15,-6.89 -3.32,-6.92z"/>
  <path class="fil3" d="M185.33 108.87c-6.48,-25.88 -8.26,-70.87 30.73,-88.12 15.1,-6.68 30.53,-14.29 49.2,-15.43 72.75,-4.45 90.08,98.11 59.91,126.28 -17.27,16.13 -62.46,30.65 -86.59,26.92 -23.62,-3.65 -43.73,-11.61 -53.26,-49.65z"/>
  <path class="fil3" d="M314.69 169.09c14.14,13.79 11.73,100.73 11.96,122.14 -5.09,-0.79 -17.82,-5.61 -40.58,-5.61 -0.07,-7.41 -0.48,-11.27 -1.76,-18.48 -5.83,-32.74 -0.95,-37.97 8.66,-68.58 4.71,-15 7.95,-22.14 21.71,-29.47z"/>
  <path class="fil3" d="M199.11 271.41c1.2,-44.83 2.37,-55.68 24.67,-116.14 21.39,-57.97 101.47,109.82 62.07,123.45 -9.15,6.49 -36.56,5.62 -48.52,-1.37 -29.03,-16.98 -37.65,-5.85 -38.22,-5.94z"/>
  <path class="fil1" d="M234.14 157.77c1.1,7.43 -0.66,18.26 -3.57,25.64 -1.74,4.43 -7.98,7.9 -6.29,18.25 4.87,29.84 4.1,39.77 21.94,60.68 12.98,15.22 47.02,11.42 56.03,-6.25 8.25,-16.19 9.13,-22.28 17.17,-39.6 7.47,-16.08 -8.72,-49.06 -7.42,-69.59 0.42,-6.65 -57.61,-2.59 -65.06,1.2 -1.76,0.89 -13.12,7.47 -12.8,9.67z"/>
  <path class="fil4 str0" d="M309.6 148.32c0.42,-5.63 -35.19,3.81 -41.43,9.32 -1.33,1.18 -10.67,4 -5.59,6.06 18.04,7.3 46.17,-3.94 47.02,-15.38z"/>
  <path class="fil1 str1" d="M216.06 20.75c-8.04,16.63 -4.81,36.51 6.8,47.66 44.82,43.05 1.7,62.41 4.9,87.98 11.16,4.55 14.56,7.2 34.82,7.31 14.13,-7.82 31.18,-12.72 47.02,-15.38 6.69,-3.36 16.24,-13.96 16.33,-20.04 -4.03,-21.83 -45.71,-14.21 -43.77,-54.07 1.85,-38.03 -1.35,-64.95 -16.9,-68.89 -18.07,-0.87 -37.77,6.91 -49.2,15.43z"/>
  <path class="fil5" d="M270.35 118.05c22.68,-8.4 29.68,8.15 18.92,16.48 -7.73,5.98 -3.97,8.51 -7.75,9.83 -3.32,1.02 -2.29,-3.42 -13.61,-3.18 -9.91,0.21 -19.28,-15.08 2.43,-23.12z"/>
  <circle class="fil6 str0" cx="305.47" cy="90.7" r="13.23"/>
  <path class="fil2" d="M213.52 162.5c0.01,-0.17 -2.32,-12.49 -2.63,-15 -0.69,-5.59 0.76,-7.38 3.47,-11.52 5.51,1.29 14.75,46.74 2.31,41.7 -1.62,-0.14 -2.86,-9.21 -2.82,-11.03 0.02,-1.07 -0.33,-4.17 -0.33,-4.16z"/>
  <ellipse class="fil7 str0" cx="305.6" cy="89.19" rx="10.49" ry="10.35"/>
  <path class="fil1" d="M199.11 271.41c-0.71,0.34 0.3,32.8 -2.55,46.39 -4.48,21.33 10.44,27.38 13.22,22.02 -0.38,3.7 11.36,3.93 11.63,1.24 0.43,3.43 11.78,1.74 12.08,-1.04 0.52,1.71 10.89,3.22 10.14,-12.42 -0.27,-5.58 -6.1,-17.45 -5.97,-25.56 0.03,-1.66 0.45,-35.98 -2.63,-45.81 -2.81,2.07 -22.35,8.79 -35.91,15.19z"/>
  <circle class="fil6 str0" cx="225.92" cy="112.1" r="13.23"/>
  <ellipse class="fil7 str0" cx="226.05" cy="110.59" rx="10.49" ry="10.35"/>
  <path class="fil8" d="M79.56 198.96l10.46 8.01c7.72,23.91 6,58.19 16.6,79.21 1.94,9.27 3.88,18.53 5.82,27.77 0.46,17.9 -16.92,33.88 -31.55,17.07 -8.54,-23.11 -11.68,-28.1 -15.87,-35.09 -7.91,1.87 -21.17,1.42 -28.8,-1.92 -0.26,2.71 -4.08,20.88 -2.52,24.63 22.25,3.84 25.69,15.65 14.87,24.47 -12.89,7.41 -34.01,-1.92 -40.94,-16.32 -9.63,-24.99 -14.49,-102.91 12.69,-118.91 -7.95,-15.18 -13.58,-35.07 -16.05,-57.65 7.66,-3.7 14.22,-6.63 28.19,-5.74 9.14,19.2 14.65,33.49 18.3,52.42 9.87,-1.23 19.89,-0.69 28.8,2.06z"/>
  <path class="fil9" d="M112.43 313.94c-3.14,12.06 -26.23,21.58 -31.55,17.07 3.98,9.39 7.63,22.28 11.38,29.63 5.81,11.89 24.78,6.67 18.31,-0.91 1.49,7.64 17.51,-0.14 9.67,-8.41 1.99,11.41 11.11,-2.42 6.38,-5.83 3.34,6.88 4.34,-7.79 -4.7,-13.53 -7.72,-4.83 -6.68,-9.89 -9.49,-18.02z"/>
  <path class="fil2" d="M82.44 128.5c-4.89,-22.52 -8.43,-60.37 8.39,-55.94 11.01,2.9 26.55,23 34.57,24.07 9.32,1.25 -36.8,31.07 -42.95,31.87z"/>
  <path class="fil8" d="M120.84 288.43c2.15,4.48 3.71,11.74 5.04,18.2 25.17,-4.81 4.62,-7.52 29.33,-7.27 -0.45,-2.19 -6.94,-28.76 -7.96,-42.59 -1.04,10.13 -27.63,29.11 -26.41,31.65z"/>
  <path class="fil9" d="M116.5 204.61c-15.85,-1.62 -27.79,-2.78 -30,17.22 -3.66,33.11 14.28,51.32 21.95,73.1 30.13,-15.55 40.72,-20.32 39.87,-58.01 5.24,-6.42 -26.19,-14.35 -34.03,-21.77 -1.3,-1.23 2.75,-10.48 2.21,-10.53z"/>
  <path class="fil8" d="M109.42 100.84c-35.54,14.87 -53.95,90.15 -18.81,108.57 4.24,2.24 13.65,3.53 20.23,3.7l34.83 -11.09 7.68 4.66c-1.78,14.49 -25.96,27.9 5.42,30.43 40.5,5.22 85.41,-82.31 43.22,-117.48 -17.45,-14.55 -58.17,-33.19 -92.57,-18.8z"/>
  <path class="fil10 str0" d="M120.73 227.04c0.92,7.49 11.55,11.79 21.33,8.57 13.26,-8.4 -23.25,-24.26 -21.33,-8.57z"/>
  <path class="fil9" d="M125.88 306.64c1.76,8.7 2.93,13.48 2.43,18.95 0.52,13.59 10.97,11.09 10.37,3.4 0.29,7.01 13.24,9.5 12.42,-0.98 -0.05,9.5 10.38,4.05 8.52,-3.41 1.86,11.74 12.14,0.18 1.85,-14.54 -3,-4.29 -4.96,-5.52 -6.25,-10.7 -3.57,-4.68 -25.25,0.6 -29.33,7.27z"/>
  <path class="fil9 str0" d="M110.85 213.12c1.93,4.68 2.87,6.38 9.32,13.6 3.06,3.43 6.35,1.01 14.12,1.11 3.75,4.63 3.59,6.63 7.55,7.69 8.46,2.27 15.68,1.36 19.57,-0.26 6.31,-5.78 0.45,-28.13 3.76,-45.55 1.48,-7.81 11.29,-17.72 15.13,-32.56 8.1,-31.24 -2.43,-36.14 -11.7,-39.06 -11.87,-3.74 -16.44,14.67 -27.29,62.64 -8.07,19.06 -25.69,22.73 -30.46,32.39z"/>
  <path class="fil11" d="M133.26 212.85c-1.13,2.11 0.74,4.59 1.82,6.5 0.1,0.18 0.23,0.43 0.34,0.65 0.07,0.14 0.13,0.28 0.18,0.38 0.99,2.27 0.59,2.94 1.28,3.39 0.62,0.4 1.69,0.02 5.13,-0.04 2.92,-0.05 5.62,0.95 7.09,-1.61 1.59,-2.75 0.26,-5.18 -4.79,-8.15 -6.47,-3.8 -9.64,-3.74 -11.05,-1.11z"/>
  <path class="fil12 str0" d="M116.18 165.81c13.88,0.65 14.74,9.55 12.76,14.51 -1.99,4.97 -7.24,10.52 -13.94,10.32 -15.57,-0.48 -18.82,-25.76 1.19,-24.83z"/>
  <path class="fil13 str0" d="M123.52 167.11c2.25,1.82 3.75,5.34 3.76,8.02 0.01,5.63 -5.2,10.34 -10.99,10.2 -5.79,-0.14 -10.24,-4.57 -10.24,-10.2 0,-2.91 2.04,-7.01 4.01,-8.87 5.12,-0.65 7.93,-0.55 13.47,0.85z"/>
  <path class="fil12 str0" d="M188.99 209.28c-1.71,8.84 -10.79,12.78 -17.09,9.48 -6.31,-3.29 -7.48,-14.14 -1.72,-19.32 9.6,-6.93 19.71,0.71 18.81,9.84z"/>
  <path class="fil13 str0" d="M187.54 202.75c0.87,8.57 -4.9,14.56 -12.44,12.6 -8.09,-2.1 -7.92,-15.05 -0.99,-17.75 4.44,-1.73 11.57,0.79 13.43,5.14z"/>
  <ellipse class="fil9 str0" cx="118.06" cy="169.85" rx="2.47" ry="1.78"/>
  <ellipse class="fil9 str0" cx="179.71" cy="200.78" rx="2.47" ry="1.78"/>
  <path class="fil9" d="M4.26 150.22c-0.48,-6.6 -2.72,-22.87 8.08,-24.82 7.69,-1.38 17.14,11.56 20.1,19.07 -1.88,1.17 -23.52,7.98 -28.19,5.74z"/>
  <ellipse class="fil9 str0" cx="227.29" cy="105.65" rx="4.06" ry="2.84"/>
  <ellipse class="fil9 str0" cx="305.69" cy="84.56" rx="4.06" ry="2.84"/>
  <path class="fil7" d="M263.18 132.34c0.77,-3.68 5.36,-5.16 6.76,-0.79 1.18,3.66 -4.09,6.37 -6.29,2.7 -0.62,0.21 -4.7,1.45 -5.41,1.4 -0.5,-1.08 -0.35,-0.73 -0.8,-2.02 0.01,0.94 5.37,0.21 5.73,-1.29z"/>
  <path class="fil7" d="M287.23 122.11c-3.24,-1.91 -7.42,0.49 -5.14,4.47 1.91,3.33 7.46,1.27 6.23,-2.83 0.57,-0.32 4.22,-2.29 4.67,-2.86 -0.74,-1.06 -1.05,-1.17 -1.69,-1.96 0.69,0.64 -2.71,3.92 -4.06,3.18z"/>
  <path class="fil14 str0" d="M281.52 144.35c1.39,3.19 2.63,6.43 3.18,9.96"/>
  <path class="fil15" d="M137.88 216.78c0.69,2.37 -2.22,3.62 -2.47,3.21 -0.24,-0.4 -1.55,-2.58 -1.85,-3.32 -0.5,-1.22 3.63,-2.27 4.32,0.1z"/>
  <path class="fil16" d="M142.91 220.46c-2.44,0.08 -2.45,3.25 -1.98,3.29 0.47,0.04 3.2,0.07 3.99,0.1 1.08,0.04 0.43,-3.47 -2.01,-3.39z"/>
  <path class="fil14 str2" d="M128.85 135.05c-0.61,-19.3 4.62,-41.36 -16.23,-69.07"/>
  <path class="fil14 str2" d="M133.24 138.34c19.88,-45.54 42.72,-56.08 42.46,-59.04"/>
  <path class="fil14 str2" d="M189.47 166.59c6.95,-16.17 31.44,-34.26 54.38,-45.47"/>
  <path class="fil14 str2" d="M195.23 167.42c8.71,-14.3 31.27,-25.97 43.75,-29.51"/>
  <path class="fil14 str2" d="M123.61 209.06c-38.82,-6.09 -103.29,19.98 -114.81,38.36"/>
  <path class="fil14 str2" d="M114.29 215.14c-39.25,3.16 -85.48,35.84 -96.55,51.71"/>
  <path class="fil14 str2" d="M129.18 220.98c-39.25,3.16 -68.52,41.2 -79.59,57.06"/>
  <path class="fil14 str2" d="M209.02 283.59c-9.61,-22.62 -32.17,-51.86 -50.01,-60.34"/>
  <path class="fil14 str2" d="M195.06 297.31c-9.61,-22.62 -21.2,-55.7 -39.04,-64.18"/>
  <path class="fil14 str2" d="M206.71 304.3c-9.61,-22.62 -28.33,-64.75 -46.17,-73.23"/>
  <path class="fil14 str0" d="M111.81 361.95c-1.62,-3.01 -3.58,-5.74 -7.32,-8.41"/>
  <path class="fil14 str0" d="M127.72 347.3c-1.62,-3.01 -2.23,-4.72 -5.97,-7.39"/>
  <path class="fil14 str0" d="M122.55 355.62c-1.62,-3.01 -3.55,-5.71 -6.91,-8.82"/>
  <path class="fil14 str0" d="M138.59 330.89c0,-0.02 -0.37,-7.47 -0.98,-9.45"/>
  <path class="fil14 str0" d="M151.22 329.75c0,0 -0.3,-8.16 -1.25,-10.13"/>
  <path class="fil14 str0" d="M159.98 326.49c0,0 -1.33,-8.09 -2.28,-10.06"/>
  <path class="fil14 str0" d="M209.65 339.93c0,-0.02 0.31,-8.57 0.53,-11.23"/>
  <path class="fil14 str0" d="M221.44 341.23c0,-0.02 0.66,-8.92 0.25,-12.33"/>
  <path class="fil14 str0" d="M233.58 340.27c0,-0.02 -0.03,-8.78 -0.43,-12.19"/>
  <path class="fil14 str0" d="M294.47 341.81c0,-0.02 0.9,-9.55 0.89,-13.34"/>
  <path class="fil14 str0" d="M304.42 343.18c0,-0.02 1.81,-9.69 1.79,-13.79"/>
  <path class="fil14 str0" d="M315.91 343.32c0,0 1.77,-9.21 1.34,-12.99"/>
  <path class="fil14 str2" d="M362.92 111.26c-16.38,-1.08 -37.65,4.1 -51.11,10.16"/>
  <path class="fil14 str2" d="M362.08 127.42c-18.14,-2.73 -25.34,-2.99 -48.35,1.96"/>
  <path class="fil14 str2" d="M359.89 143.07c-22.08,-4.48 -25.41,-7.66 -44.23,-9.28"/>
  <path class="fil14 str2" d="M234.74 148.03c-16.38,-1.08 -37.65,4.1 -51.11,10.16"/>
  <path class="fil14 str2" d="M235.47 141.35c-18.14,-2.73 -25.34,-2.99 -48.35,1.96"/>
  <path class="fil14 str2" d="M233.73 151.79c-14.85,3.89 -34.64,15.07 -42.06,22.78"/>
  <path class="fil14 str2" d="M128.85 135.05c-0.61,-19.3 4.62,-41.36 -16.23,-69.07"/>
  <path class="fil14 str3" d="M15.94 432.04l80.82 0 18.58 -12.14 7.96 38.58 10.7 -26.45 33.18 0c-56.19,-60.07 4.34,-76.49 16.1,-53.76 11.76,-22.73 72.3,-6.31 16.1,53.76l33.17 0 10.7 26.45 7.96 -38.58 18.58 12.14 80.82 0"/>
  <path class="fil14 str4" d="M15.94 432.04l80.82 0 18.58 -12.14 7.96 38.58 10.7 -26.45 33.18 0c-56.19,-60.07 4.34,-76.49 16.1,-53.76 11.76,-22.73 72.3,-6.31 16.1,53.76l33.17 0 10.7 26.45 7.96 -38.58 18.58 12.14 80.82 0"/>
 </g>
</svg>
