<svg viewBox="0 0 118 52" fill="none" xmlns="http://www.w3.org/2000/svg">
<path d="M25.0753 4.64534C28.3941 5.63912 30.1917 8.57423 32.6116 10.7467C33.9253 11.9253 35.1007 13.2196 36.3222 14.4907C36.4835 14.6756 36.8292 14.7911 36.6909 15.1147C36.5526 15.4151 36.2069 15.2996 35.9765 15.2996C34.4554 15.2996 32.9343 15.2765 31.4132 15.2996C30.9062 15.2996 30.5835 15.0685 30.2378 14.7218C28.6015 13.0809 26.9191 11.4862 25.3288 9.79912C24.7526 9.19823 24.3609 9.26757 23.8308 9.79912C19.7515 13.8205 15.6952 17.8418 11.639 21.8631C9.74913 23.7351 7.88233 25.6302 5.99249 27.4791C4.95538 28.496 3.41124 28.6116 2.6046 27.7102C1.93624 26.9707 1.65968 25.4453 2.83507 24.3129C7.3753 19.8987 11.8464 15.4151 16.3405 10.9778C18.1151 9.24446 19.7745 7.41868 21.6644 5.8009C22.2866 5.26934 23.3698 4.50668 23.8538 4.50668C24.3609 4.36801 24.0843 4.29868 25.0753 4.64534Z" fill="#ABC725"/>
<path d="M41.8074 35.2213C40.7012 35.1982 39.5949 35.1982 38.4887 35.2213C38.0969 35.2213 37.9356 35.4062 38.0969 35.8222C38.1199 37.0471 38.0738 38.2951 38.166 39.4969C38.2582 40.6062 37.8664 40.9529 36.7602 40.9529C30.8141 40.9067 24.868 40.9298 18.9219 40.9298C16.7094 40.9298 14.4969 40.9067 12.2844 40.9529C11.4317 40.976 11.109 40.6525 11.1551 39.7973C11.2012 39.0347 11.2242 38.2489 11.109 37.4862C10.9246 36.2382 11.4547 35.3831 12.3074 34.5742C13.3676 33.6036 14.3586 32.5405 15.4188 31.5467C15.8797 31.1076 15.9949 30.7378 15.6262 30.16C15.0731 29.2818 14.6813 28.3342 14.5199 27.2942C14.3817 26.3236 14.036 26.4391 13.4598 27.04C11.5238 29.0045 9.58791 30.9227 7.62892 32.864C6.98361 33.488 6.7301 34.2507 6.7301 35.1289C6.7301 37.2782 6.73009 39.4276 6.684 41.5769C6.63791 43.0329 6.75314 44.3965 7.88244 45.4596C8.04377 45.4596 8.18205 45.4596 8.34338 45.4596C15.6492 45.4596 22.9781 45.4596 30.284 45.4596C33.5567 45.4596 36.8293 45.4596 40.125 45.4596C40.2863 45.4596 40.4246 45.4596 40.586 45.4596C42.1531 45.0436 42.3375 44.8356 42.5219 43.264C42.5219 40.9529 42.5219 38.6649 42.5219 36.3538C42.568 35.7991 42.568 35.2213 41.8074 35.2213Z" fill="#ABC725"/>
<path d="M21.9863 23.2498V24.4978H23.6227C24.3141 24.4978 25.0055 24.6364 25.7199 24.9138C26.4344 25.1911 26.7801 25.792 26.757 26.6933C26.757 27.4791 26.4113 28.0338 25.743 28.3342C25.0746 28.6347 24.3602 28.7733 23.5996 28.7733H20.1426V22.1404H25.8121V23.2498H21.9863ZM21.9863 25.6302V27.6871H23.1617C23.6227 27.6871 23.9684 27.6178 24.2219 27.456C24.4754 27.3173 24.5906 27.04 24.6137 26.6933C24.6367 25.9769 24.1527 25.6302 23.1848 25.6302H21.9863Z" fill="black"/>
<path d="M31.3668 28.7733V27.8027C31.3207 27.8027 31.2746 27.8027 31.2516 27.8027C31.2055 27.8027 31.1594 27.8027 31.1133 27.8027C30.3988 27.7796 29.8687 27.7333 29.5461 27.6409C28.993 27.4791 28.532 27.1556 28.1863 26.7164C27.8406 26.2773 27.6562 25.7458 27.6562 25.1218C27.6562 24.7289 27.7484 24.336 27.9328 23.92C28.1172 23.504 28.4859 23.1573 29.0391 22.8569C29.5922 22.5564 30.3758 22.4178 31.3668 22.464V21.6782H33.1645V22.464C34.2016 22.4409 34.9852 22.5564 35.5613 22.8569C36.1375 23.1573 36.5062 23.504 36.6906 23.92C36.875 24.336 36.9672 24.7289 36.9672 25.1218C36.9672 25.7458 36.7828 26.2773 36.4371 26.7164C36.0914 27.1787 35.6074 27.4791 35.0312 27.6409C34.6855 27.7333 34.1555 27.8027 33.418 27.8027C33.3488 27.8027 33.3027 27.8027 33.2797 27.8027C33.2336 27.8027 33.2105 27.8027 33.1645 27.8027V28.7733H31.3668ZM31.3668 23.5502C30.0992 23.4578 29.4539 23.9893 29.4539 25.1218C29.4539 25.7458 29.6152 26.1618 29.9148 26.416C30.2145 26.6702 30.6984 26.7627 31.3668 26.7164V23.5502ZM33.1645 23.5271V26.7164C33.8559 26.7627 34.3629 26.6471 34.6855 26.416C35.0082 26.1618 35.1695 25.7458 35.1695 25.1218C35.1695 24.0124 34.5012 23.4809 33.1645 23.5271Z" fill="black"/>
<path d="M49.2277 27.6871H49.9422V30.3449H48.3059V28.7733H43.5582V30.3449H41.9219V27.6871H42.6594C43.0512 27.1324 43.3508 26.6009 43.5352 26.0462C43.7195 25.4916 43.8348 24.96 43.8809 24.4053C43.927 23.8738 43.927 23.1111 43.927 22.1404H49.2508V27.6871H49.2277ZM45.7707 23.2498C45.7477 24.1742 45.6785 24.9831 45.5172 25.6302C45.3789 26.2773 45.0793 26.9707 44.6184 27.6871H47.407V23.2498H45.7707Z" fill="black"/>
<path d="M50.7031 25.4684C50.7031 25.0755 50.7953 24.6133 50.9566 24.1049C51.141 23.5964 51.5098 23.1111 52.109 22.672C52.7082 22.2329 53.584 22.0018 54.7133 22.0018C56.3726 22.0018 57.4558 22.3947 57.9629 23.2035C58.4699 24.0124 58.7234 24.752 58.7234 25.4684C58.7234 26.1849 58.4699 26.9244 57.9629 27.7333C57.4558 28.5422 56.3726 28.9351 54.7133 28.9351C53.584 28.9351 52.7082 28.704 52.109 28.2649C51.5098 27.8258 51.118 27.3404 50.9566 26.832C50.7953 26.3235 50.7031 25.8613 50.7031 25.4684ZM52.8465 25.4684C52.8465 26.1155 52.9848 26.6702 53.2613 27.1324C53.5379 27.5947 54.0219 27.8258 54.7363 27.8258C55.4508 27.8258 55.9348 27.5947 56.2113 27.1324C56.4879 26.6702 56.6262 26.1155 56.6262 25.4684C56.6262 24.8213 56.4879 24.2667 56.2113 23.8044C55.9348 23.3422 55.4508 23.1111 54.7363 23.1111C54.0219 23.1111 53.5379 23.3422 53.2613 23.8044C52.9848 24.2667 52.8465 24.8213 52.8465 25.4684Z" fill="black"/>
<path d="M64.2084 25.6764L66.0521 22.1636H68.2186V28.7964H66.4439V24.3591L64.8307 27.5022H63.5861L61.9728 24.3591V28.7964H60.1982V22.1404H62.3646L64.2084 25.6764Z" fill="black"/>
<path d="M80.9631 27.6871H81.6775V30.3449H80.0412V28.7733H75.2936V30.3449H73.6572V27.6871H74.3947C74.7865 27.1324 75.0861 26.6009 75.2705 26.0462C75.4549 25.4916 75.5701 24.96 75.6162 24.4053C75.6623 23.8738 75.6623 23.1111 75.6623 22.1404H80.9861V27.6871H80.9631ZM77.5061 23.2498C77.483 24.1742 77.4139 24.9831 77.2525 25.6302C77.1143 26.2773 76.8146 26.9707 76.3537 27.6871H79.1424V23.2498H77.5061Z" fill="black"/>
<path d="M82.4385 25.4684C82.4385 25.0755 82.5307 24.6133 82.692 24.1049C82.8533 23.5964 83.2451 23.1111 83.8443 22.672C84.4435 22.2329 85.3193 22.0018 86.4486 22.0018C88.108 22.0018 89.1912 22.3947 89.6982 23.2035C90.2053 24.0124 90.4588 24.752 90.4588 25.4684C90.4588 26.1849 90.2053 26.9244 89.6982 27.7333C89.1912 28.5422 88.108 28.9351 86.4486 28.9351C85.3193 28.9351 84.4435 28.704 83.8443 28.2649C83.2451 27.8258 82.8533 27.3404 82.692 26.832C82.5307 26.3235 82.4385 25.8613 82.4385 25.4684ZM84.5818 25.4684C84.5818 26.1155 84.7201 26.6702 84.9967 27.1324C85.2732 27.5947 85.7572 27.8258 86.4717 27.8258C87.1861 27.8258 87.6701 27.5947 87.9467 27.1324C88.2232 26.6702 88.3615 26.1155 88.3615 25.4684C88.3615 24.8213 88.2232 24.2667 87.9467 23.8044C87.6701 23.3422 87.1861 23.1111 86.4717 23.1111C85.7572 23.1111 85.2732 23.3422 84.9967 23.8044C84.7201 24.2667 84.5818 24.8213 84.5818 25.4684Z" fill="black"/>
<path d="M93.7539 23.2498V24.4978H95.3902C96.0816 24.4978 96.773 24.6364 97.4875 24.9138C98.202 25.1911 98.5477 25.792 98.5246 26.6933C98.5246 27.4791 98.1789 28.0338 97.5105 28.3342C96.8422 28.6347 96.1277 28.7733 95.3672 28.7733H91.9102V22.1404H97.5797V23.2498H93.7539ZM93.7539 25.6302V27.6871H94.9293C95.3902 27.6871 95.7359 27.6178 95.9895 27.456C96.243 27.3173 96.3582 27.04 96.3813 26.6933C96.4043 25.9769 95.9203 25.6302 94.9523 25.6302H93.7539Z" fill="black"/>
<path d="M101.729 26.624V28.7733H99.8848V22.1404H102.466C103.664 22.1404 104.563 22.3022 105.209 22.6489C105.854 22.9724 106.154 23.5733 106.13 24.4284C106.107 25.8844 104.978 26.624 102.72 26.624H101.729ZM101.729 25.4916H102.535C103.019 25.4916 103.388 25.3991 103.664 25.2373C103.941 25.0756 104.056 24.7982 104.079 24.4053C104.125 23.6427 103.595 23.2498 102.535 23.2498H101.729V25.4916Z" fill="black"/>
<path d="M109.334 27.4098L108.688 28.7733H106.845L110.002 22.1404H111.731L114.934 28.7733H113.09L112.376 27.3867L109.334 27.4098ZM109.864 26.2773H111.892L110.855 24.1973L109.864 26.2773Z" fill="black"/>
<path d="M49.2281 37.4169H51.3254C51.7633 37.4169 52.2012 37.4631 52.6621 37.5325C53.123 37.6249 53.5379 37.8329 53.9527 38.1796C54.3445 38.5262 54.552 39.0578 54.5059 39.728C54.5289 40.7218 54.2063 41.3458 53.4918 41.6231C52.8004 41.9005 52.0629 42.0391 51.3023 42.0391H49.2051V37.4169H49.2281ZM50.634 38.2258V41.2765H51.0258C51.3254 41.2765 51.625 41.2533 51.9016 41.184C52.1781 41.1378 52.4086 40.9991 52.616 40.768C52.8234 40.5369 52.9387 40.1902 52.9156 39.7511C52.9387 39.104 52.7543 38.688 52.3625 38.5031C51.9707 38.3182 51.5328 38.2258 51.0258 38.2258H50.634Z" fill="black"/>
<path d="M55.1514 40.4676C55.1514 40.0053 55.3588 39.6124 55.7506 39.2889C56.1424 38.9653 56.7416 38.8036 57.5021 38.8036C58.2627 38.8036 58.8389 38.9653 59.2537 39.2889C59.6455 39.6124 59.8529 40.0053 59.8529 40.4676C59.8529 40.9298 59.6455 41.3227 59.2537 41.6462C58.8619 41.9698 58.2627 42.1316 57.5021 42.1316C56.7416 42.1316 56.1654 41.9698 55.7506 41.6462C55.3588 41.3227 55.1514 40.9298 55.1514 40.4676ZM56.5803 40.4907C56.5803 40.8373 56.6725 41.0684 56.8568 41.2302C57.0412 41.392 57.2486 41.4613 57.5021 41.4613C57.7557 41.4613 57.9861 41.392 58.1475 41.2302C58.3318 41.0684 58.401 40.8142 58.401 40.4907C58.401 40.144 58.3088 39.8898 58.1475 39.7511C57.9631 39.5893 57.7557 39.52 57.5021 39.52C57.2486 39.52 57.0182 39.5893 56.8568 39.7511C56.6725 39.8898 56.5803 40.144 56.5803 40.4907Z" fill="black"/>
<path d="M62.0883 38.8729V39.1734C62.5031 38.9191 62.8949 38.7805 63.3098 38.8036C63.7938 38.8267 64.1395 38.9885 64.3699 39.2889C64.7617 38.9654 65.1766 38.8036 65.6605 38.8036C66.4441 38.8036 66.8359 39.1965 66.8359 39.9591V42.0854H65.5914V40.2134C65.5914 40.0285 65.5684 39.8898 65.5223 39.7742C65.4762 39.6587 65.3379 39.6125 65.1305 39.6125C64.9922 39.6125 64.8539 39.6587 64.7387 39.728C64.6234 39.7974 64.5313 39.8898 64.4621 40.0285V42.0854H63.2176V40.2134C63.2176 39.8205 63.0562 39.6356 62.7566 39.6125C62.6414 39.6125 62.5262 39.6356 62.3879 39.728C62.2727 39.7974 62.1574 39.8898 62.0883 40.0285V42.0854H60.8438V38.896H62.0883V38.8729Z" fill="black"/>
<path d="M68.2652 37.4169H70.3625C70.8004 37.4169 71.2383 37.4631 71.6992 37.5325C72.1602 37.6249 72.575 37.8329 72.9899 38.1796C73.3817 38.5262 73.5891 39.0578 73.543 39.728C73.566 40.7218 73.2434 41.3458 72.5289 41.6231C71.8375 41.9005 71.1 42.0391 70.3395 42.0391H68.2422V37.4169H68.2652ZM69.6711 38.2258V41.2765H70.0629C70.3625 41.2765 70.6621 41.2533 70.9387 41.184C71.2152 41.1378 71.4457 40.9991 71.6531 40.768C71.8606 40.5369 71.9758 40.1902 71.9527 39.7511C71.9758 39.104 71.7914 38.688 71.3996 38.5031C71.0078 38.3182 70.5699 38.2258 70.0629 38.2258H69.6711Z" fill="black"/>
<path d="M74.1875 40.4676C74.1875 40.0053 74.3949 39.6124 74.7867 39.2889C75.1785 38.9653 75.7777 38.8036 76.5383 38.8036C77.2988 38.8036 77.875 38.9653 78.2898 39.2889C78.6816 39.6124 78.8891 40.0053 78.8891 40.4676C78.8891 40.9298 78.6816 41.3227 78.2898 41.6462C77.8981 41.9698 77.2988 42.1316 76.5383 42.1316C75.7777 42.1316 75.2016 41.9698 74.7867 41.6462C74.3719 41.3227 74.1875 40.9298 74.1875 40.4676ZM75.6164 40.4907C75.6164 40.8373 75.7086 41.0684 75.893 41.2302C76.0773 41.392 76.2848 41.4613 76.5383 41.4613C76.7918 41.4613 77.0223 41.392 77.1836 41.2302C77.368 41.0684 77.4371 40.8142 77.4371 40.4907C77.4371 40.144 77.3449 39.8898 77.1836 39.7511C76.9992 39.5893 76.7918 39.52 76.5383 39.52C76.2848 39.52 76.0543 39.5893 75.893 39.7511C75.7086 39.8898 75.6164 40.144 75.6164 40.4907Z" fill="black"/>
<path d="M81.1023 39.1734C81.425 38.9191 81.8859 38.7805 82.4621 38.8036C82.8539 38.8267 83.1766 38.896 83.4301 39.0578C83.6836 39.2196 83.891 39.4045 84.0062 39.6587C84.1215 39.9129 84.1906 40.1671 84.2137 40.4676C84.2137 41.1609 84.0062 41.6231 83.5684 41.8311C83.1305 42.0391 82.7617 42.1547 82.4391 42.1547C81.8398 42.1547 81.402 41.9929 81.1023 41.6925V42.0854H79.8809V37.5556H81.1023V39.1734ZM81.0793 40.4445C81.0793 40.6756 81.1254 40.8374 81.2176 40.976C81.3098 41.1147 81.425 41.2071 81.5633 41.2534C81.7016 41.2996 81.8168 41.3227 81.932 41.3227C82.1395 41.3227 82.3238 41.2533 82.5082 41.1147C82.6926 40.976 82.7617 40.7449 82.7617 40.4445C82.7617 40.2134 82.7156 40.0516 82.6234 39.9129C82.5312 39.7742 82.416 39.6818 82.3008 39.6356C82.1625 39.5894 82.0473 39.5662 81.932 39.5662C81.7246 39.5662 81.5402 39.6356 81.3559 39.7742C81.1715 39.8898 81.0793 40.1209 81.0793 40.4445Z" fill="black"/>
<path d="M86.3109 38.8729V39.2196C86.5645 38.9653 86.8641 38.8267 87.1867 38.7805C87.348 38.7805 87.5785 38.8036 87.8551 38.8729L87.5785 39.728C87.4402 39.6818 87.3019 39.6587 87.1867 39.6818C86.841 39.7049 86.6336 39.7973 86.4953 40.0053C86.3801 40.1902 86.3109 40.4445 86.3109 40.768V42.0622H85.0664V38.8729H86.3109Z" fill="black"/>
<path d="M89.0535 39.8436L88.5465 39.2427C89.1688 38.9422 89.791 38.8036 90.4363 38.8036C91.1508 38.8036 91.6348 38.9191 91.8652 39.1733C92.0957 39.4276 92.2109 39.6818 92.2109 39.9591V40.9067C92.2109 41.0684 92.234 41.184 92.3031 41.2764C92.3492 41.3689 92.4875 41.4151 92.6949 41.392V42.0853C92.5566 42.1316 92.3953 42.1547 92.2801 42.1547C91.8422 42.1547 91.5195 42.0391 91.3352 41.808C90.9434 42.0391 90.4594 42.1547 89.8832 42.1547C89.3762 42.1547 88.9844 42.0622 88.7539 41.8773C88.5234 41.6924 88.4082 41.4844 88.4082 41.2302C88.4082 40.8836 88.6156 40.6062 89.0074 40.3751C89.3992 40.144 90.0676 40.0284 90.9894 40.0284C90.9894 40.0053 90.9894 39.9822 90.9894 39.9591C90.9894 39.8898 90.9894 39.8436 90.9894 39.8204C90.9434 39.6356 90.7129 39.5431 90.3441 39.5431C89.9062 39.52 89.4914 39.6124 89.0535 39.8436ZM90.9664 40.6524C90.5977 40.6293 90.275 40.6756 90.0445 40.768C89.791 40.8604 89.6758 40.976 89.6758 41.1378C89.6988 41.2302 89.7449 41.2996 89.8371 41.3458C89.9293 41.392 90.0676 41.4151 90.2289 41.392C90.4594 41.3689 90.7129 41.2996 90.9894 41.1378V40.6524H90.9664Z" fill="black"/>
<path d="M93.2939 41.6C93.2939 41.4382 93.3631 41.2995 93.5244 41.184C93.6857 41.0684 93.8701 41.0222 94.0775 41.0222C94.308 41.0222 94.4924 41.0684 94.6307 41.184C94.792 41.2995 94.8611 41.4382 94.8611 41.6C94.8611 41.7618 94.792 41.9004 94.6307 42.016C94.4693 42.1316 94.285 42.1778 94.0775 42.1778C93.8701 42.1778 93.6857 42.1316 93.5244 42.016C93.3631 41.9004 93.2939 41.7618 93.2939 41.6Z" fill="black"/>
<path d="M95.7363 40.4676C95.7363 40.0053 95.9438 39.6124 96.3355 39.2889C96.7273 38.9653 97.3266 38.8036 98.0871 38.8036C98.8477 38.8036 99.4238 38.9653 99.8387 39.2889C100.23 39.6124 100.438 40.0053 100.438 40.4676C100.438 40.9298 100.23 41.3227 99.8387 41.6462C99.4469 41.9698 98.8477 42.1316 98.0871 42.1316C97.3266 42.1316 96.7504 41.9698 96.3355 41.6462C95.9438 41.3227 95.7363 40.9298 95.7363 40.4676ZM97.1652 40.4907C97.1652 40.8373 97.2574 41.0684 97.4418 41.2302C97.6262 41.392 97.8336 41.4613 98.0871 41.4613C98.3406 41.4613 98.5711 41.392 98.7324 41.2302C98.9168 41.0684 98.9859 40.8142 98.9859 40.4907C98.9859 40.144 98.8938 39.8898 98.7324 39.7511C98.5481 39.5893 98.3406 39.52 98.0871 39.52C97.8336 39.52 97.6031 39.5893 97.4418 39.7511C97.2574 39.8898 97.1652 40.144 97.1652 40.4907Z" fill="black"/>
<path d="M102.559 38.8729V39.2196C102.812 38.9653 103.112 38.8267 103.435 38.7805C103.596 38.7805 103.827 38.8036 104.103 38.8729L103.827 39.728C103.688 39.6818 103.55 39.6587 103.435 39.6818C103.089 39.7049 102.882 39.7973 102.743 40.0053C102.628 40.1902 102.559 40.4445 102.559 40.768V42.0622H101.314V38.8729H102.559Z" fill="black"/>
<path d="M107.905 39.0809V38.8729H109.173V41.6924C109.173 42.1084 109.035 42.5013 108.781 42.8711C108.528 43.2409 107.951 43.4258 107.076 43.4489C106.315 43.4489 105.716 43.264 105.278 42.8711L106.038 42.3396C106.384 42.5707 106.753 42.6631 107.168 42.64C107.767 42.6169 108.021 42.3165 107.928 41.7849C107.606 42.0391 107.168 42.1778 106.661 42.1547C106.131 42.1316 105.67 41.9698 105.278 41.6462C104.863 41.3227 104.679 40.9298 104.679 40.4213C104.702 40.1209 104.794 39.8436 104.955 39.5893C105.117 39.3351 105.347 39.1502 105.647 39.0116C105.946 38.8729 106.269 38.8036 106.638 38.8036C107.099 38.7804 107.513 38.896 107.905 39.0809ZM106.062 40.4676C106.062 40.8142 106.154 41.0685 106.338 41.2071C106.522 41.3689 106.73 41.4382 106.983 41.4382C107.237 41.4382 107.467 41.3689 107.629 41.2071C107.813 41.0453 107.905 40.7911 107.905 40.4676C107.905 40.1209 107.813 39.8898 107.652 39.728C107.467 39.5662 107.26 39.4969 106.983 39.4969C106.73 39.4969 106.499 39.5662 106.338 39.728C106.131 39.8667 106.062 40.1209 106.062 40.4676Z" fill="black"/>
</svg>
