<svg xmlns="http://www.w3.org/2000/svg" fill="none" viewBox="0 0 175 44">
    <path fill="#764AEE"
          d="M66.066 35.606c-.473-.65-1.418-.768-2.127-.296-4.077 2.718-7.976 4.313-11.876 4.845-3.485.532-6.558.59-9.157.473-.06-.296-.118-.65-.236-1.064-.769-2.717-1.714-3.15-2.777-3.09-1.655.117-2.718 1.318-3.368 3.209-2.481-.65-4.017-1.36-4.431-1.537-.768-.236-1.595.06-1.89.768-.355.768 0 1.655.826 1.95 6.913 2.6 14.594 3.427 21.565 2.186 4.372-.768 8.803-2.363 13.234-5.317.532-.532.71-1.477.237-2.127m94.931-17.588-.413-3.78c1.181-.237 2.245-.473 3.722-.473 2.245 0 2.954.768 2.954 1.713 0 1.654-1.891 2.363-6.263 2.54m-9.571 12.053 9.158-.236.236-6.263c1.3.06 2.186.118 2.954.118 6.794 0 11.285-2.777 11.226-7.621-.06-5.318-5.436-7.208-12.644-7.208-5.081 0-8.153.531-11.521 1.122zm-19.261-12.88v-3.486a31 31 0 0 1 2.777-.118c3.132 0 4.313.946 4.313 2.186 0 .945-.65 1.714-2.718 1.714-1.949 0-3.19-.178-4.372-.296m7.858 7.208c0 1.359-1.004 1.89-2.954 1.89-2.599 0-5.376-1.24-5.376-3.485 0-1.359 1.004-1.95 2.777-1.95 2.245-.059 5.553 1.36 5.553 3.545m-26.468 5.85h8.921l-5.317-21.447-14.475-.06-5.908 21.329h9.216l1.123-6.44 5.908.236zM0 28.888c5.613 1.655 10.34 2.01 14.12 2.01 7.268 0 10.753-2.955 10.753-7.386 0-1.95-.886-4.313-4.135-5.495 1.181-1.181 1.831-2.777 1.831-3.958 0-4.018-5.613-6.026-13.057-6.026-2.6 0-5.14.295-7.503.65l.827 5.79c3.131-.71 5.672-1.064 7.858-1.064 2.304 0 3.722.532 3.722 1.713 0 .946-.709 1.537-2.954 1.537-1.24 0-3.486-.237-7.68-.71l-.355 4.55c1.595-.06 2.245-.06 3.545-.06 5.022 0 8.271.769 8.271 2.955 0 .945-.768 1.595-2.422 1.595-2.777 0-6.735-.827-11.285-2.481zm123.303 1.3c6.263.71 13.884 1.123 17.607 1.123 5.612 0 8.803-2.068 8.803-5.672 0-2.482-2.186-4.136-4.431-5.258 1.063-.946 2.363-2.305 2.363-4.727 0-5.494-6.854-7.149-16.602-7.149-2.245 0-4.431.118-6.204.237zm-15.715-15.893h5.081c.177.532.236 1.123.236 1.655-.059 2.008-1.3 3.426-3.072 3.426-1.596 0-2.718-1.181-2.718-2.895 0-.65.118-1.418.473-2.186m-10.69 8.685c0 5.554-5.088 7.976-13.276 7.976-3.919 0-6.375-.236-10.82-.71l.468-7.03c3.568.71 7.603 1.3 10.527 1.3 2.164 0 2.925-.532 2.925-1.359 0-1.122-1.112-1.89-5.673-1.89-2.983 0-4.796.177-5.908.295l-.526-4.963 4.387.118c3.86.118 4.678-.65 4.678-1.713 0-1.182-1.286-1.713-3.04-1.713-1.99 0-4.621.59-7.078 1.417l-1.11-5.553c2.982-.65 6.608-1.123 9.708-1.123 6.082 0 9.825 1.536 9.825 5.79 0 1.536-.585 2.777-1.403 3.722 2.807.414 6.316 1.95 6.316 5.436"/>
    <path fill="#fff"
          d="M59.764 31.638c5.086-.22 8.975-5.79 8.686-12.441-.288-6.65-4.644-11.863-9.73-11.643s-8.975 5.79-8.686 12.441c.288 6.65 4.644 11.863 9.73 11.643"/>
    <path fill="#000" fill-rule="evenodd"
          d="M53.477 12.142c-1.387 1.986-2.217 4.741-2.084 7.795.132 3.053 1.197 5.726 2.75 7.584s3.532 2.846 5.562 2.758 3.917-1.244 5.302-3.229c1.387-1.985 2.217-4.74 2.085-7.794s-1.198-5.726-2.751-7.585c-1.552-1.857-3.531-2.846-5.562-2.758-2.03.088-3.917 1.245-5.302 3.23m-2.23-1.557c1.758-2.518 4.36-4.257 7.414-4.39 3.055-.132 5.797 1.375 7.767 3.732 1.969 2.356 3.225 5.614 3.381 9.211s-.814 6.952-2.571 9.47c-1.759 2.518-4.36 4.256-7.415 4.389-3.055.132-5.797-1.375-7.767-3.732-1.968-2.355-3.225-5.614-3.381-9.21-.156-3.598.814-6.953 2.572-9.47"
          clip-rule="evenodd"/>
    <path fill="#fff"
          d="M59.475 32.829c-5.672 0-10.398-5.79-10.635-12.998-.118-4.077 1.182-7.917 3.663-10.517 1.773-1.89 4.018-2.954 6.381-2.954h.177c5.672 0 10.399 5.79 10.635 12.998.118 4.077-1.182 7.917-3.663 10.517-1.773 1.89-4.018 2.954-6.38 2.954z"/>
    <path fill="#764AEE" fill-rule="evenodd"
          d="M58.884 7.72c-1.936 0-3.836.868-5.39 2.524l-.003.005-.005.004c-2.185 2.29-3.396 5.754-3.287 9.536.224 6.783 4.613 11.68 9.275 11.68h.178c1.935 0 3.835-.868 5.388-2.525l.004-.004.005-.005c2.186-2.29 3.396-5.754 3.287-9.535-.223-6.784-4.613-11.68-9.275-11.68zm-7.37.66C53.507 6.257 56.095 5 58.885 5h.177c6.68 0 11.744 6.683 11.994 14.313v.006c.127 4.368-1.261 8.582-4.035 11.49-1.99 2.122-4.58 3.38-7.368 3.38h-.178c-6.68 0-11.743-6.683-11.993-14.314v-.005c-.127-4.369 1.26-8.582 4.034-11.49"
          clip-rule="evenodd"/>
    <path fill="#fff"
          d="M58.883 7.72c-1.936 0-3.836.868-5.389 2.525l-.008.008c-2.186 2.29-3.397 5.754-3.288 9.536.224 6.784 4.614 11.68 9.276 11.68h.177c1.935 0 3.836-.868 5.389-2.524l.004-.005.004-.004c2.186-2.29 3.397-5.754 3.287-9.536-.223-6.784-4.613-11.68-9.275-11.68z"/>
    <path fill="#000"
          d="M55.929 17.94c-3.19-.177-5.909 2.777-6.263 6.736 1.418 4.194 4.55 7.326 8.212 8.035 2.186-1.064 3.782-3.663 3.84-6.795.119-4.254-2.422-7.798-5.79-7.976"/>
    <path fill="#fff"
          d="M30.453 24.558C27.32 18 30.275 10.083 34.293 8.547c4.077-1.536 10.575 1.24 12.998 9.098 2.127 7.031.354 12.94-3.722 14.475-4.018 1.477-9.985-1.004-13.116-7.562"/>
    <path fill="#000" fill-rule="evenodd"
          d="M34.776 9.818c-1.438.552-2.983 2.434-3.775 5.223-.773 2.72-.723 5.993.68 8.93 2.936 6.15 8.268 8.027 11.414 6.875 1.518-.574 2.742-2.008 3.349-4.257.607-2.251.552-5.22-.453-8.546-2.266-7.345-8.088-9.4-11.215-8.225m-.962-2.544c5.026-1.894 12.198 1.604 14.777 9.97l.001.004.001.004c1.12 3.703 1.243 7.202.477 10.045-.767 2.845-2.465 5.133-5.021 6.096l-.005.002-.005.002c-4.89 1.797-11.488-1.29-14.813-8.253-1.728-3.62-1.768-7.585-.842-10.846.906-3.192 2.846-6.036 5.424-7.021l.003-.002z"
          clip-rule="evenodd"/>
    <path fill="#fff"
          d="M40.556 33.716c-1.654 0-3.367-.414-4.962-1.3-2.836-1.477-5.2-4.077-6.795-7.326-1.772-3.722-1.89-8.33-.354-12.23 1.063-2.718 2.836-4.727 4.844-5.495 2.127-.827 4.786-.59 7.208.591 3.427 1.654 6.027 4.963 7.386 9.276 2.245 7.385.354 14.12-4.432 15.952-.886.354-1.89.532-2.895.532"/>
    <path fill="#764AEE" fill-rule="evenodd"
          d="M39.902 9.178c-2.16-1.053-4.42-1.206-6.12-.545l-.003.001-.004.002c-1.537.587-3.088 2.226-4.063 4.72l-.002.002c-1.401 3.558-1.288 7.77.314 11.14 1.492 3.036 3.667 5.393 6.198 6.712l.017.008.016.009a8.86 8.86 0 0 0 4.302 1.129c.851 0 1.681-.152 2.39-.435l.01-.004.009-.003c1.889-.723 3.32-2.45 4.028-4.989.708-2.54.65-5.8-.41-9.291-1.273-4.036-3.662-6.997-6.678-8.453zm1.19-2.446c-2.683-1.307-5.739-1.627-8.291-.636-2.479.95-4.47 3.327-5.622 6.267-1.669 4.237-1.547 9.238.393 13.311l.003.008.004.007c1.695 3.453 4.24 6.288 7.37 7.925a11.6 11.6 0 0 0 5.608 1.462c1.154 0 2.329-.203 3.39-.626 2.892-1.11 4.795-3.664 5.667-6.795s.753-6.927-.43-10.819l-.002-.006-.002-.007c-1.445-4.586-4.254-8.238-8.088-10.09"
          clip-rule="evenodd"/>
    <path fill="#000"
          d="M36.133 18.059c-3.368.472-5.731 4.372-5.2 8.744.119.827.296 1.654.591 2.363a15 15 0 0 0 4.018 3.25c1.181.59 2.363 1.004 3.545 1.181 2.777-1.063 4.55-4.55 4.076-8.449-.472-4.372-3.663-7.503-7.03-7.09"/>
</svg>
